<svg width="30" height="30" viewBox="0 0 30 30" xmlns="http://www.w3.org/2000/svg"><title>twitter facebook</title><path d="M19.003 29.46V18.34h3.75l.63-4.32h-4.38v-3.4c0-.625.16-1.103.476-1.435.317-.332.783-.498 1.398-.498h2.813V4.79c-.84-.137-1.864-.205-3.075-.205-2.012 0-3.548.51-4.607 1.53-1.06 1.02-1.59 2.41-1.59 4.168v3.736h-3.75v4.32h3.75v11.65C6.404 29.682 0 23.09 0 15 0 6.716 6.716 0 15 0c8.284 0 15 6.716 15 15 0 6.898-4.656 12.708-10.997 14.46z" fill="#EEF1FA" fill-rule="evenodd"/></svg>