<?xml version="1.0" encoding="UTF-8" standalone="no"?>
<svg width="380px" height="42px" viewBox="0 0 380 42" version="1.1" xmlns="http://www.w3.org/2000/svg" xmlns:xlink="http://www.w3.org/1999/xlink" xmlns:sketch="http://www.bohemiancoding.com/sketch/ns">
    <!-- Generator: Sketch 3.5.2 (25235) - http://www.bohemiancoding.com/sketch -->
    <title>Page 1 Copy 11</title>
    <desc>Created with Sketch.</desc>
    <defs></defs>
    <g id="Page-1" stroke="none" stroke-width="1" fill="none" fill-rule="evenodd" sketch:type="MSPage">
        <g id="Desktop-Copy" sketch:type="MSArtboardGroup" transform="translate(-122.000000, -65.000000)" fill="#003DFF">
            <g id="Page-1-Copy-11" sketch:type="MSLayerGroup" transform="translate(122.000000, 65.000000)">
                <path d="M97.0442703,38.9255787 C94.6860835,37.6782172 92.930974,35.9728281 91.7773955,33.8094116 C91.3351388,32.9803818 91.6088431,31.9482932 92.4005753,31.4322489 C93.2819959,30.8597145 94.5128921,31.1101029 95.0015393,32.0337917 C95.8814136,33.693378 97.2050909,34.9987563 98.9772102,35.9484 C101.347768,37.2217164 104.261095,37.8568479 107.714099,37.8568479 C111.219679,37.8568479 113.962907,37.1957615 115.948423,35.8720621 C117.932393,34.5498894 118.925151,32.7925906 118.925151,30.6047459 C118.925151,28.7222529 118.074657,27.2199227 116.37367,26.1008089 C114.672683,24.981695 111.682038,24.0396851 107.404828,23.276306 C101.992597,22.309868 98.1777463,21.0121234 95.9618239,19.3830723 C93.7443552,17.7555479 92.6371672,15.4394556 92.6371672,12.4363219 C92.6371672,10.4515361 93.255708,8.61942616 94.4927895,6.93999202 C95.7298711,5.26055787 97.4818879,3.93685841 99.7503862,2.9704204 C102.017338,2.00398239 104.595107,1.52 107.482146,1.52 C111.553691,1.52 114.813401,2.28337916 117.262822,3.81013747 C119.283904,5.07123984 120.786958,6.88655547 121.771985,9.25761114 C122.135377,10.1293901 121.793633,11.1401041 120.967881,11.6133992 C119.973577,12.1844068 118.742681,11.7370666 118.261766,10.7065048 C116.444802,6.82243163 112.85108,4.87886829 107.482146,4.87886829 C105.420859,4.87886829 103.551319,5.21017485 101.87662,5.8712612 C100.201921,6.5338743 98.8859755,7.41023358 97.9334226,8.50491929 C96.9793235,9.599605 96.5030471,10.7828427 96.5030471,12.0546324 C96.5030471,14.141711 97.3782823,15.7692353 99.1318454,16.940259 C100.883862,18.1112826 103.976566,19.0777206 108.409957,19.8410998 C113.667554,20.7067717 117.378799,21.9541333 119.543691,23.5816576 C121.708584,25.2107088 122.79103,27.5008462 122.79103,30.4520701 C122.79103,33.7086455 121.385397,36.3178755 118.577221,38.2767064 C115.7675,40.2355373 111.992855,41.2157162 107.250193,41.2157162 C103.331737,41.2157162 99.929763,40.452337 97.0442703,38.9255787 Z M178.768972,38.8049648 C178.768972,39.7118592 178.025176,40.44623 177.106643,40.44623 L148.976955,40.44623 C147.752244,40.44623 146.759486,39.4660511 146.759486,38.2568586 C146.759486,37.7469213 146.938863,37.2537783 147.266689,36.8614015 L173.511375,5.48346458 L136.01234,5.48346458 L136.01234,38.5377821 C136.01234,39.5912453 135.146383,40.44623 134.0794,40.44623 C133.012417,40.44623 132.14646,39.5912453 132.14646,38.5377821 L132.14646,5.39033233 C132.14646,3.67120246 133.558279,2.27727212 135.299471,2.27727212 L175.614414,2.27727212 C176.843763,2.27727212 177.84116,3.26203124 177.84116,4.4758041 C177.84116,4.97963434 177.666423,5.468197 177.344781,5.85904713 L155.805645,32.1253972 L151.166589,37.2400375 L158.125173,37.1636996 L177.106643,37.1636996 C178.025176,37.1636996 178.768972,37.8980704 178.768972,38.8049648 Z M193.457923,8.73408571 C191.03479,11.3051467 189.669361,14.9052428 189.360091,19.5359008 L216.575885,19.5359008 C216.317645,14.9556258 215.041904,11.3677438 212.748664,8.77225467 C210.453878,6.17676553 207.322515,4.87902097 203.354576,4.87902097 C199.179426,4.87902097 195.879511,6.16455147 193.457923,8.73408571 Z M217.683073,22.971107 L189.360091,22.971107 C189.616785,27.6536747 191.022419,31.3056806 193.5739,33.9255979 C196.125381,36.5470419 199.539726,37.8570006 203.818482,37.8570006 C206.85861,37.8570006 209.473491,37.2462972 211.666218,36.0248906 C213.348649,35.0859342 214.675419,33.8477332 215.643435,32.3072341 C216.14136,31.5133198 217.15886,31.2156019 217.996983,31.6492012 C218.940257,32.1362372 219.255713,33.3347424 218.665007,34.2095749 C217.321227,36.1974143 215.593952,37.7821894 213.483181,38.9639003 C210.801807,40.4647038 207.580756,41.2158688 203.818482,41.2158688 C198.096979,41.2158688 193.623383,39.4600968 190.403878,35.9485527 C187.181281,32.4370085 185.571528,27.5773368 185.571528,21.3680108 C185.571528,15.1586847 187.130251,10.299013 190.249243,6.78746886 C193.366689,3.27592474 197.735133,1.52015268 203.354576,1.52015268 C208.612173,1.52015268 212.734747,3.2514966 215.725392,6.71113094 C218.71449,10.172292 220.209812,14.752567 220.209812,20.4519558 L220.209812,20.4779107 C220.208266,21.8550467 219.077883,22.971107 217.683073,22.971107 Z M294.513416,4.96238197 L294.513416,38.5373241 C294.513416,39.5923141 293.647459,40.445772 292.580476,40.445772 C291.513493,40.445772 290.647536,39.5923141 290.647536,38.5373241 L290.647536,5.55934447 L281.616841,5.55934447 L270.167651,38.6319831 C269.791887,39.7175082 268.758924,40.445772 267.597614,40.445772 L267.580604,40.445772 C266.436303,40.445772 265.414165,39.7388829 265.02603,38.6762591 L253.457771,7.08610279 L242.189505,38.6548845 C241.807556,39.7281955 240.779232,40.445772 239.627199,40.445772 C238.465889,40.445772 237.432926,39.7175082 237.057162,38.6319831 L225.383751,4.93337356 C224.932217,3.63104872 225.912604,2.2768141 227.305867,2.2768141 C228.191927,2.2768141 228.975927,2.84324143 229.243446,3.67685147 L239.617921,35.9418349 L251.036184,4.07533539 C251.421226,2.99744402 252.452643,2.2768141 253.61086,2.2768141 C254.769078,2.2768141 255.802041,3.00049754 256.187083,4.07991567 L267.529574,35.9418349 L277.740136,4.41427574 C278.151466,3.1409593 279.349889,2.2768141 280.702947,2.2768141 L291.793383,2.2768141 C293.296437,2.2768141 294.513416,3.47989965 294.513416,4.96238197 Z M310.74671,38.9255787 C308.388523,37.6782172 306.633413,35.9728281 305.479835,33.8094116 C305.037578,32.9803818 305.311283,31.9482932 306.103015,31.4322489 C306.984435,30.8597145 308.215332,31.1101029 308.703979,32.0337917 C309.583853,33.693378 310.90753,34.9987563 312.67965,35.9484 C315.050207,37.2217164 317.963534,37.8568479 321.416538,37.8568479 C324.922118,37.8568479 327.665347,37.1957615 329.650862,35.8720621 C331.634832,34.5498894 332.62759,32.7925906 332.62759,30.6047459 C332.62759,28.7222529 331.777096,27.2199227 330.076109,26.1008089 C328.375122,24.981695 325.384477,24.0396851 321.107268,23.276306 C315.695036,22.309868 311.880186,21.0121234 309.664263,19.3830723 C307.446795,17.7555479 306.339607,15.4394556 306.339607,12.4363219 C306.339607,10.4515361 306.958147,8.61942616 308.195229,6.93999202 C309.432311,5.26055787 311.184327,3.93685841 313.452826,2.9704204 C315.719778,2.00398239 318.297546,1.52 321.184585,1.52 C325.25613,1.52 328.51584,2.28337916 330.965262,3.81013747 C332.986344,5.07123984 334.489398,6.88655547 335.474424,9.25761114 C335.837817,10.1293901 335.496073,11.1401041 334.670321,11.6133992 C333.676017,12.1844068 332.44512,11.7370666 331.964205,10.7065048 C330.147241,6.82243163 326.553519,4.87886829 321.184585,4.87886829 C319.123298,4.87886829 317.253759,5.21017485 315.57906,5.8712612 C313.90436,6.5338743 312.588415,7.41023358 311.635862,8.50491929 C310.681763,9.599605 310.205486,10.7828427 310.205486,12.0546324 C310.205486,14.141711 311.080722,15.7692353 312.834285,16.940259 C314.586302,18.1112826 317.679006,19.0777206 322.112397,19.8410998 C327.369993,20.7067717 331.081238,21.9541333 333.246131,23.5816576 C335.411023,25.2107088 336.49347,27.5008462 336.49347,30.4520701 C336.49347,33.7086455 335.087836,36.3178755 332.279661,38.2767064 C329.469939,40.2355373 325.695294,41.2157162 320.952633,41.2157162 C317.034177,41.2157162 313.632202,40.452337 310.74671,38.9255787 Z M352.807019,8.73408571 C350.383886,11.3051467 349.018457,14.9052428 348.709186,19.5359008 L375.924981,19.5359008 C375.66674,14.9556258 374.391,11.3677438 372.09776,8.77225467 C369.802974,6.17676553 366.671611,4.87902097 362.703672,4.87902097 C358.528521,4.87902097 355.228606,6.16455147 352.807019,8.73408571 Z M376.954851,22.971107 L348.709186,22.971107 C348.965881,27.6536747 350.371515,31.3056806 352.922996,33.9255979 C355.474476,36.5470419 358.888821,37.8570006 363.167577,37.8570006 C366.207705,37.8570006 368.822586,37.2462972 371.015314,36.0248906 C372.697744,35.0859342 374.024514,33.8477332 374.992531,32.3072341 C375.490456,31.5133198 376.507956,31.2156019 377.346078,31.6492012 L377.346078,31.6492012 C378.289353,32.1362372 378.604809,33.3347424 378.014103,34.2095749 C376.670323,36.1974143 374.943048,37.7821894 372.832277,38.9639003 C370.150903,40.4647038 366.929852,41.2158688 363.167577,41.2158688 C357.446075,41.2158688 352.972479,39.4600968 349.752974,35.9485527 C346.530377,32.4370085 344.920624,27.5773368 344.920624,21.3680108 C344.920624,15.1586847 346.479347,10.299013 349.598339,6.78746886 C352.715784,3.27592474 357.084229,1.52015268 362.703672,1.52015268 C367.961268,1.52015268 372.083843,3.2514966 375.074487,6.71113094 C378.063586,10.172292 379.558908,14.752567 379.558908,20.4519558 L379.558908,20.4779107 C379.557362,21.8672607 378.363578,22.971107 376.954851,22.971107" id="wordmark" sketch:type="MSShapeGroup"></path>
                <path d="M31.3021965,18.7100703 L5.14263328,26.9238443 C1.97894654,27.9291111 -0.105660919,30.8558682 0.00413291601,34.153533 C0.137270427,38.1147063 3.58383511,41.2224013 7.64199038,41.2224013 L68.9682627,41.2224013 C73.0266495,41.2224013 76.4729999,38.1144722 76.6061048,34.1528882 C76.7172188,30.8592069 74.6345405,27.9309822 71.4843927,26.9259647 L40.0183435,17.1211316 C39.8333242,17.0632384 39.7109044,16.8986473 39.7109044,16.7175365 L39.7109044,16.172751 C39.7109044,15.541187 39.9640184,14.9357972 40.4175452,14.4853452 L42.4228085,12.4957144 C44.1446715,10.7958186 44.9031169,8.41622051 44.4773794,6.00599721 C43.9727344,3.13322288 41.690686,0.786156573 38.8099353,0.171727283 C34.1256642,-0.825960595 29.7939229,2.67414534 29.7939229,7.31915793 C29.7939229,8.15863075 30.4771831,8.83915793 31.3200273,8.83915793 C32.1628715,8.83915793 32.8461317,8.15863075 32.8461317,7.31915793 C32.8461317,4.60679938 35.3892779,2.55190271 38.1712432,3.14442456 C39.838476,3.50002522 41.1811816,4.88098585 41.4710895,6.53133174 C41.723861,7.9623485 41.2852793,9.33838449 40.2714067,10.3393263 L38.2628787,12.3321898 C37.2354757,13.3526271 36.6586955,14.732151 36.6586955,16.172751 L36.6586955,16.7175365 C36.6586955,18.2320424 37.65168,19.567091 39.1052869,20.0219212 L70.5631879,29.8241797 C72.4068502,30.4124153 73.6207813,32.1191902 73.5556105,34.0510066 C73.4790872,36.3285601 71.4233819,38.1824013 68.9682627,38.1824013 L7.64199038,38.1824013 C5.18701118,38.1824013 3.13115963,36.3286831 3.05464894,34.0523003 C2.99024312,32.1178651 4.20466325,30.4128378 6.0653162,29.8216066 L32.2198801,21.6094117 C33.0237265,21.3570141 33.4699423,20.5033656 33.216531,19.7027346 C32.9631197,18.9021036 32.1060429,18.4576727 31.3021965,18.7100703 L31.3021965,18.7100703 Z" id="Shape" sketch:type="MSShapeGroup"></path>
            </g>
        </g>
    </g>
</svg>